<?xml version="1.0" encoding="utf-8"?>
<!-- Generator: Adobe Illustrator 17.0.0, SVG Export Plug-In . SVG Version: 6.00 Build 0)  -->
<!DOCTYPE svg PUBLIC "-//W3C//DTD SVG 1.1//EN" "http://www.w3.org/Graphics/SVG/1.1/DTD/svg11.dtd">
<svg version="1.1" id="Camada_1" xmlns="http://www.w3.org/2000/svg" xmlns:xlink="http://www.w3.org/1999/xlink" x="0px" y="0px"
	 width="512px" height="149.271px" viewBox="0 181.864 512 149.271" enable-background="new 0 181.864 512 149.271"
	 xml:space="preserve">
<g id="形状_1_3_" enable-background="new    ">
	<g id="形状_1">
		<g>
			<path fill="#005BAC" d="M211.328,184.445l-23.465,144.208h37.542l23.468-144.208L211.328,184.445L211.328,184.445z
				 M156.276,184.445l-35.794,99.185l-4.234-21.358l0.003,0.007l-0.933-4.787c-4.332-9.336-14.365-27.08-33.31-42.223
				c-5.601-4.476-11.247-8.296-16.705-11.559l32.531,124.943h39.116l59.733-144.208L156.276,184.445L156.276,184.445z
				 M302.797,224.48c0-16.304,36.563-14.209,52.629-5.356l5.357-30.972c0,0-16.534-6.288-33.768-6.288
				c-18.632,0-62.875,8.148-62.875,47.739c0,37.26,51.928,37.723,51.928,57.285s-46.574,16.066-61.944,3.726l-5.586,32.373
				c0,0,16.763,8.148,42.382,8.148c25.616,0,64.272-13.271,64.272-49.37C355.192,244.272,302.797,240.78,302.797,224.48z
				 M455.997,184.445h-30.185c-13.938,0-17.332,10.747-17.332,10.747l-55.988,133.461h39.131l7.828-21.419h47.728l4.403,21.419
				h34.472L455.997,184.445z M410.27,277.641l19.728-53.966l11.098,53.966H410.27z"/>
		</g>
	</g>
</g>
<g id="形状_1_2_" enable-background="new    ">
	<g id="形状_1_1_">
		<g>
			<path fill="#F6AC1D" d="M104.132,198.022c0,0-1.554-13.015-18.144-13.015H25.715l-0.706,2.446c0,0,28.972,5.906,56.767,28.033
				c26.562,21.148,35.227,47.51,35.227,47.51L104.132,198.022z"/>
		</g>
	</g>
</g>
</svg>
