<?xml version="1.0" encoding="utf-8"?>
<!-- Generator: Adobe Illustrator 17.0.0, SVG Export Plug-In . SVG Version: 6.00 Build 0)  -->
<!DOCTYPE svg PUBLIC "-//W3C//DTD SVG 1.1//EN" "http://www.w3.org/Graphics/SVG/1.1/DTD/svg11.dtd">
<svg version="1.1" id="Camada_1" xmlns="http://www.w3.org/2000/svg" xmlns:xlink="http://www.w3.org/1999/xlink" x="0px" y="0px"
	 width="1766.041px" height="1747.182px" viewBox="-30 -29.775 1766.041 1747.182"
	 enable-background="new -30 -29.775 1766.041 1747.182" xml:space="preserve">
<g id="cart">
	<path fill="#9BA4B8" d="M1229.179,1717.407c-60.762,0-118.216-19.418-166.153-56.153c-40.472-31.015-71.726-73.403-89.608-121.027
		h-298.46c-17.888,47.622-49.168,90.011-89.684,121.034c-47.97,36.731-105.445,56.146-166.211,56.146
		c-150.741,0-273.377-122.568-273.377-273.226c0-0.86-0.021-1.718-0.04-2.573c-0.007-0.308-0.014-0.623-0.02-0.944
		c-0.416-2.021-0.625-4.085-0.625-6.189V163.226H66.07c-52.973,0-96.07-43.29-96.07-96.5c0-53.209,43.097-96.5,96.069-96.501
		h176.099c53.177,0,94.832,41.7,94.832,94.933v107.067h1302.967c29.125,0,56.088,12.378,73.974,33.961
		c18.301,22.093,25.741,50.89,20.417,79.013l-126.586,669.035l-0.148,0.823c-0.285,1.594-0.64,3.576-1.18,5.673
		c-12.606,49.352-38.976,91.761-76.242,122.585c-37.895,31.344-83.627,47.911-132.251,47.911H338.199
		c-0.401,0-0.8-0.003-1.199-0.009v52.456c27.108-8.58,53.749-12.671,81.584-12.671c60.269,0,117.878,19.981,166.601,57.785
		c40.279,31.252,71.497,73.071,89.521,119.439h298.959c18.001-46.386,49.1-88.193,89.177-119.407
		c48.568-37.827,106.087-57.821,166.338-57.821c150.664,0,273.238,122.547,273.238,273.178
		C1502.417,1594.836,1379.843,1717.407,1229.179,1717.407z M1229.18,1363.085c-44.718,0-81.098,36.38-81.098,81.097
		s36.38,81.096,81.098,81.096s81.099-36.379,81.099-81.096S1273.897,1363.085,1229.18,1363.085z M419.2,1363.085
		c-44.718,0-81.101,36.38-81.101,81.097c0,44.717,36.382,81.096,81.101,81.096c44.716,0,81.095-36.379,81.095-81.096
		S463.916,1363.085,419.2,1363.085z M1397.95,938.226c12.292,0,18.587-12.044,21.745-22.634l104.32-551.366H337v571.637
		c0,1.051,0.953,2.091,1.456,2.363H1397.95z"/>
</g>
</svg>
