<?xml version="1.0" encoding="utf-8"?>
<!-- Generator: Adobe Illustrator 17.0.0, SVG Export Plug-In . SVG Version: 6.00 Build 0)  -->
<!DOCTYPE svg PUBLIC "-//W3C//DTD SVG 1.1//EN" "http://www.w3.org/Graphics/SVG/1.1/DTD/svg11.dtd">
<svg version="1.1" id="Layer_1" xmlns="http://www.w3.org/2000/svg" xmlns:xlink="http://www.w3.org/1999/xlink" x="0px" y="0px"
	 width="54.998px" height="54.965px" viewBox="-2.499 -2.466 54.998 54.965" enable-background="new -2.499 -2.466 54.998 54.965"
	 xml:space="preserve">
<g>
	<g>
		<path fill="#9BA4B8" d="M41.045,52.499l-0.142-0.001c-7.511-0.245-16.654-5.706-27.176-16.231
			C3.199,25.737-2.26,16.604-2.497,9.119c-0.136-4.22,6.926-9.395,8.343-10.39c1.109-0.772,2.448-1.195,3.777-1.195
			c1.804,0,3.445,0.781,4.39,2.09c0.627,0.868,6.216,9.342,6.856,10.353c1.088,1.714,1.031,4.08-0.156,6.326
			c-0.31,0.591-1.1,1.995-1.816,3.257c0.998,1.271,2.722,3.294,5.482,6.055c2.757,2.757,4.784,4.483,6.057,5.484
			c1.347-0.764,2.687-1.518,3.263-1.82c2.153-1.137,4.578-1.213,6.268-0.184c1.08,0.661,9.53,6.28,10.358,6.859
			c1.226,0.858,2.01,2.273,2.152,3.883c0.13,1.48-0.303,3.012-1.219,4.315C51.04,44.471,45.49,52.499,41.045,52.499z M2.503,9.036
			c0.232,5.994,5.47,14.404,14.76,23.695c9.282,9.285,17.702,14.525,23.721,14.766c1.181-0.313,4.278-3.582,6.194-6.235
			c0.224-0.318,0.344-0.685,0.317-0.986c-0.014-0.15-0.057-0.234-0.072-0.254c-0.618-0.427-9.043-6.033-10.058-6.655
			c0.006,0.004-0.052-0.011-0.167-0.011c-0.327,0-0.754,0.126-1.171,0.347c-0.565,0.297-2.175,1.201-4.535,2.549l-1.369,0.78
			l-1.295-0.897c-1.22-0.847-3.88-2.879-7.986-6.984c-4.114-4.113-6.141-6.77-6.982-7.987l-0.895-1.294l0.78-1.367
			c1.32-2.313,2.247-3.964,2.543-4.528c0.412-0.78,0.375-1.26,0.343-1.346c-0.563-0.884-6.126-9.319-6.672-10.076
			c0.024,0.036-0.107-0.018-0.337-0.018c-0.312,0-0.644,0.106-0.911,0.293C6.077,4.738,2.803,7.855,2.503,9.036z"/>
	</g>
</g>
</svg>
