<?xml version="1.0" encoding="utf-8"?>
<!-- Generator: Adobe Illustrator 17.0.0, SVG Export Plug-In . SVG Version: 6.00 Build 0)  -->
<!DOCTYPE svg PUBLIC "-//W3C//DTD SVG 1.1//EN" "http://www.w3.org/Graphics/SVG/1.1/DTD/svg11.dtd">
<svg version="1.1" id="Layer_1" xmlns="http://www.w3.org/2000/svg" xmlns:xlink="http://www.w3.org/1999/xlink" x="0px" y="0px"
	 width="60px" height="77.098px" viewBox="9 0.451 60 77.098" enable-background="new 9 0.451 60 77.098" xml:space="preserve">
<g>
	<path fill="#9BA4B8" d="M69,30.451c0-16.568-13.431-30-30-30c-16.568,0-30,13.432-30,30c0,7.086,2.464,13.596,6.572,18.729
		c0.001,0.001,0.002,0.003,0.001,0.004s-0.002,0.002-0.004,0.002c7.746,9.674,18.693,23.347,22.259,27.8
		c0.285,0.355,0.716,0.562,1.171,0.563c0.456,0,0.888-0.206,1.172-0.562c3.564-4.452,14.508-18.119,22.254-27.794
		c0.001-0.001,0.002-0.003,0.001-0.004s-0.002-0.002-0.004-0.002C66.534,44.052,69,37.542,69,30.451z M57.567,45.66L39,68.851
		L20.613,45.887l-0.188-0.234c-0.055-0.075-0.111-0.149-0.169-0.222C16.817,41.134,15,35.954,15,30.451c0-13.234,10.767-24,24-24
		s24,10.766,24,24c0,5.506-1.819,10.688-5.262,14.986C57.68,45.51,57.623,45.584,57.567,45.66z"/>
	<circle fill="#9BA4B8" cx="39" cy="30.451" r="10.5"/>
</g>
</svg>
