<?xml version="1.0" encoding="utf-8"?>
<!-- Generator: Adobe Illustrator 17.0.0, SVG Export Plug-In . SVG Version: 6.00 Build 0)  -->
<!DOCTYPE svg PUBLIC "-//W3C//DTD SVG 1.1//EN" "http://www.w3.org/Graphics/SVG/1.1/DTD/svg11.dtd">
<svg version="1.1" id="Modo_de_isolamento" xmlns="http://www.w3.org/2000/svg" xmlns:xlink="http://www.w3.org/1999/xlink" x="0px"
	 y="0px" width="170.604px" height="58.502px" viewBox="0 0 170.604 58.502" enable-background="new 0 0 170.604 58.502"
	 xml:space="preserve">
<g>
	<g>
		<linearGradient id="SVGID_1_" gradientUnits="userSpaceOnUse" x1="5.7388" y1="34.3906" x2="19.2216" y2="-1.9544">
			<stop  offset="0" style="stop-color:#87C879"/>
			<stop  offset="1" style="stop-color:#21B4D9"/>
		</linearGradient>
		<path fill="url(#SVGID_1_)" d="M28.721,0C14.651,0.02,2.9,9.906,0,23.11c0.033,2.778,0.809,9.13,7.221,9.13
			c7.181,0,9.526-4.25,9.526-7.474C16.747,21.705,16.228,7.681,28.721,0z"/>
		<linearGradient id="SVGID_2_" gradientUnits="userSpaceOnUse" x1="50.8379" y1="38.0636" x2="1.7919" y2="58.19">
			<stop  offset="0.0089" style="stop-color:#DA1B60"/>
			<stop  offset="1" style="stop-color:#3C308E"/>
		</linearGradient>
		<path fill="url(#SVGID_2_)" d="M3.414,43.812c7.052,12.175,21.49,17.408,34.375,13.318c2.389-1.417,7.503-5.265,4.297-10.819
			c-3.59-6.219-8.444-6.125-11.236-4.513C28.198,43.33,16.313,50.791,3.414,43.812z"/>
		<linearGradient id="SVGID_3_" gradientUnits="userSpaceOnUse" x1="35.0611" y1="24.7297" x2="57.9385" y2="24.7297">
			<stop  offset="0" style="stop-color:#F6EB33"/>
			<stop  offset="1" style="stop-color:#BB2F4B"/>
		</linearGradient>
		<path fill="url(#SVGID_3_)" d="M54.01,43.822c7.018-12.195,4.331-27.315-5.653-36.428c-2.422-1.361-8.311-3.865-11.517,1.688
			c-3.59,6.219-1.082,10.375,1.71,11.987C41.201,22.6,53.604,29.163,54.01,43.822z"/>
	</g>
	<g>
		<g>
			<path fill="#6D6E71" d="M90.524,15.668c2.329,0,4.326,0.826,5.99,2.477c1.651,1.65,2.477,3.647,2.477,5.99v10.252
				c0,2.329-0.825,4.319-2.477,5.971c-1.664,1.651-3.661,2.477-5.99,2.477H76.644c-2.33,0-4.326-0.825-5.99-2.477
				c-1.651-1.651-2.477-3.642-2.477-5.971V24.136c0-2.343,0.825-4.34,2.477-5.99c1.664-1.651,3.66-2.477,5.99-2.477H90.524z
				 M95.938,24.136c0-1.498-0.531-2.777-1.594-3.84c-1.05-1.063-2.323-1.594-3.82-1.594H76.644c-1.498,0-2.771,0.531-3.821,1.594
				c-1.062,1.063-1.593,2.342-1.593,3.84v10.252c0,1.484,0.53,2.758,1.593,3.82c1.05,1.063,2.323,1.594,3.821,1.594h13.881
				c1.497,0,2.771-0.531,3.82-1.594c1.062-1.063,1.594-2.336,1.594-3.82V24.136z"/>
			<path fill="#6D6E71" d="M126.331,15.668c2.329,0,4.326,0.826,5.99,2.477c1.651,1.65,2.477,3.647,2.477,5.99v18.681h-3.053V24.136
				c0-1.498-0.525-2.777-1.574-3.84c-1.063-1.063-2.343-1.594-3.84-1.594H112.45c-1.498,0-2.771,0.531-3.821,1.594
				c-1.063,1.063-1.593,2.342-1.593,3.84v18.699h-3.053V24.136c0-2.343,0.832-4.34,2.496-5.99c1.65-1.651,3.641-2.477,5.971-2.477
				H126.331z"/>
			<path fill="#6D6E71" d="M162.137,15.668c2.329,0,4.326,0.826,5.99,2.477c1.651,1.65,2.477,3.647,2.477,5.99v10.252
				c0,2.329-0.825,4.319-2.477,5.971c-1.664,1.651-3.661,2.477-5.99,2.477h-13.881c-2.33,0-4.326-0.825-5.99-2.477
				c-1.651-1.651-2.477-3.642-2.477-5.971V24.136c0-2.343,0.825-4.34,2.477-5.99c1.664-1.651,3.66-2.477,5.99-2.477H162.137z
				 M167.551,24.136c0-1.498-0.531-2.777-1.594-3.84c-1.05-1.063-2.323-1.594-3.82-1.594h-13.881c-1.498,0-2.771,0.531-3.821,1.594
				c-1.063,1.063-1.593,2.342-1.593,3.84v10.252c0,1.484,0.53,2.758,1.593,3.82c1.05,1.063,2.323,1.594,3.821,1.594h13.881
				c1.497,0,2.77-0.531,3.82-1.594c1.063-1.063,1.594-2.336,1.594-3.82V24.136z"/>
		</g>
	</g>
</g>
</svg>
